<?xml version="1.0" encoding="UTF-8"?><svg id="Layer_2" xmlns="http://www.w3.org/2000/svg" viewBox="0 0 890.93 300.33"><defs><style>.cls-1{fill:#f80000;fill-rule:evenodd;}.cls-1,.cls-2{stroke-width:0px;}.cls-2{fill:#fff;}</style></defs><g id="Layer_1-2"><path class="cls-2" d="M0,150.16c0-44.17,36.03-80,80-80,24.63,0,47.43,10.79,62.69,29.92l-25.85,20.76c-8.96-11.2-22.39-17.51-36.84-17.51-25.85,0-46.82,20.97-46.82,46.82s20.97,46.82,46.82,46.82c12.62,0,24.43-4.89,33.18-13.64v-16.69h-24.83v-33.18h58.01v61.88l-3.66,4.48c-15.27,19.34-38.06,30.33-62.69,30.33C36.03,230.16,0,194.13,0,150.16Z"/><path class="cls-2" d="M492.38,150.16c0-44.58,36.23-80.61,80.61-80.61,24.63,0,47.63,10.99,63.1,30.33l-26.05,20.76c-8.96-11.4-22.59-17.91-37.05-17.91-26.05,0-47.43,21.17-47.43,47.43s21.37,47.22,47.43,47.22c14.66,0,28.09-6.51,37.25-17.91l25.85,20.76c-15.27,19.34-38.27,30.33-63.1,30.33-44.37,0-80.61-36.03-80.61-80.4Z"/><path class="cls-2" d="M729.72,150.16c0-44.37,36.23-80.61,80.61-80.61s80.61,36.23,80.61,80.61-36.03,80.61-80.61,80.61-80.61-36.23-80.61-80.61ZM857.75,150.16c0-26.05-21.17-47.43-47.43-47.43s-47.43,21.37-47.43,47.43,21.37,47.43,47.43,47.43,47.43-21.37,47.43-47.43Z"/><path class="cls-1" d="M220.17,183.15h80.12c1.59,0,2.73,1.55,2.25,3.07l-34.96,111.02c-.78,2.48,2.43,4.21,4.08,2.2l145.85-178.42c1.26-1.54.16-3.85-1.83-3.85h-80.12c-1.59,0-2.73-1.55-2.25-3.07L368.27,3.08c.78-2.48-2.43-4.21-4.08-2.2l-145.85,178.42c-1.26,1.54-.16,3.85,1.83,3.85Z"/></g></svg>