<?xml version="1.0" encoding="UTF-8"?><svg id="Layer_2" xmlns="http://www.w3.org/2000/svg" viewBox="0 0 332.44 328.22"><defs><style>.cls-1{fill:#b0ca46;}.cls-2{fill:#2c2a28;}.cls-3{fill:#fff;}.cls-4{fill:#7b6143;}.cls-5{fill:#8e734f;}</style></defs><g id="Layer_1-2"><path class="cls-2" d="M159.06,319.96c-28.82-11.57-53.44-32.4-71.2-60.24-17.9-28.06-27.36-61.12-27.36-95.61s9.46-67.56,27.36-95.61c17.76-27.84,42.38-48.67,71.2-60.24l7.15-2.87,7.15,2.87c28.82,11.57,53.45,32.4,71.21,60.23,17.9,28.06,27.37,61.12,27.37,95.62s-9.46,67.56-27.37,95.62c-17.76,27.84-42.38,48.67-71.21,60.23l-7.15,2.87-7.15-2.87Z"/><path class="cls-1" d="M166.22,328.22l-9.01-3.62c-29.8-11.96-55.23-33.46-73.55-62.19-18.41-28.86-28.14-62.85-28.14-98.3s9.73-69.44,28.14-98.3C101.97,37.08,127.4,15.58,157.2,3.62l9.01-3.62,9.02,3.62c29.8,11.96,55.23,33.46,73.56,62.18,18.42,28.86,28.15,62.86,28.15,98.3s-9.73,69.44-28.15,98.3c-18.32,28.72-43.76,50.22-73.56,62.19l-9.01,3.62ZM166.22,10.78l-5.29,2.12c-27.85,11.18-51.66,31.33-68.85,58.29-17.39,27.25-26.58,59.39-26.58,92.92s9.19,65.67,26.58,92.92c17.19,26.95,41,47.11,68.85,58.28h0s5.29,2.12,5.29,2.12l5.29-2.12c27.85-11.18,51.66-31.33,68.85-58.28,17.39-27.25,26.58-59.39,26.58-92.93s-9.19-65.67-26.58-92.93c-17.19-26.95-41-47.1-68.85-58.28l-5.29-2.12Z"/><path class="cls-2" d="M251.84,164.11c0,62.97-35.72,116.56-85.62,136.59-49.9-20.03-85.61-73.62-85.61-136.59S116.32,47.55,166.22,27.52c49.9,20.03,85.62,73.62,85.62,136.59Z"/><path class="cls-5" d="M147.62,61.57h37.22c-9.66-17.49-18.53-25.88-18.6-25.95,0,0,0,0,0,0,0,0-8.91,8.39-18.61,25.95Z"/><path class="cls-5" d="M185.55,266.33h-38.64c9.97,17.95,19.32,26.27,19.32,26.27,0,0,0,0,0,0,.09-.08,9.39-8.4,19.32-26.27Z"/><path class="cls-5" d="M192.59,77.56h-52.74c-8.86,20.9-16.54,49.9-16.54,87.65s7.28,64.81,15.83,85.13h54.15c8.56-20.33,15.83-48.4,15.83-85.13s-7.68-66.75-16.54-87.65Z"/><path class="cls-4" d="M166.22,35.61c-14.55,5.84-27.82,14.72-39.2,25.95h20.59c9.7-17.57,18.61-25.95,18.61-25.95Z"/><path class="cls-4" d="M123.32,165.21c0-37.74,7.68-66.75,16.54-87.65h-26.6c-17.22,23.55-27.57,53.68-27.57,86.55s10.26,62.73,27.35,86.23h26.12c-8.56-20.33-15.83-48.4-15.83-85.13Z"/><path class="cls-4" d="M146.9,266.33h-20.21c11.45,11.38,24.84,20.37,39.53,26.27,0,0-9.35-8.32-19.32-26.27Z"/><path class="cls-4" d="M184.83,61.57h20.59c-11.38-11.23-24.65-20.11-39.2-25.95h0c.07.07,8.95,8.46,18.6,25.95Z"/><path class="cls-4" d="M192.59,77.56c8.86,20.9,16.54,49.9,16.54,87.65s-7.28,64.81-15.83,85.13h26.12c1.51-2.08,2.98-4.2,4.38-6.38,14.45-22.45,22.97-50.03,22.97-79.85s-8.52-57.41-22.97-79.85c-1.47-2.29-3.01-4.52-4.6-6.69h-26.6Z"/><path class="cls-4" d="M185.55,266.33c-9.92,17.86-19.23,26.19-19.31,26.26h0c14.69-5.89,28.07-14.88,39.53-26.26h-20.21Z"/><path class="cls-2" d="M15,216.84c-4.44,0-8.66-1.97-11.51-5.38-2.85-3.41-4.04-7.9-3.26-12.28l13.56-75.47c1.28-7.15,7.5-12.35,14.76-12.35h68.08c4.07,0,7.92.97,11.46,2.89,3.32,1.81,6.14,4.29,8.37,7.39,1.97,2.75,3.42,5.83,4.31,9.16.99,3.75,1.13,7.61.41,11.52l-5.51,30.68c-1.08,6.15-4.06,11.61-8.6,15.73-4.86,4.42-10.85,6.75-17.3,6.75h-36.91l-1.59,8.96c-1.27,7.17-7.49,12.39-14.77,12.39H15Z"/><path class="cls-2" d="M109.91,216.84c-4.44,0-8.66-1.97-11.51-5.38-2.85-3.41-4.04-7.9-3.26-12.28l13.56-75.47c1.28-7.15,7.5-12.35,14.76-12.35h20.34c4.45,0,8.67,1.97,11.52,5.39,2.85,3.42,4.04,7.92,3.24,12.3l-3.2,17.57c-.11.63-.27,1.24-.45,1.83-.03.63-.1,1.26-.22,1.9l-9.68,54.12c-1.28,7.15-7.5,12.36-14.77,12.36h-20.34Z"/><path class="cls-2" d="M157.07,216.84c-4.02,0-7.85-.95-11.39-2.83-3.4-1.8-6.28-4.32-8.54-7.47-2.02-2.8-3.48-5.98-4.32-9.44-.89-3.64-.99-7.42-.28-11.23l9.38-51.98c1.09-6.28,4.06-11.76,8.59-15.85,4.83-4.37,10.78-6.68,17.23-6.68h49.29c4.26,0,8.32,1.03,12.06,3.06,3.47,1.89,6.4,4.45,8.73,7.62,2.2,2.99,3.78,6.36,4.7,10.04.98,3.92,1.08,7.97.29,12.05l-1.82,10.03c-.98,5.37-4.74,9.64-9.64,11.42.52.47,1,.97,1.45,1.51,2.85,3.41,4.04,7.91,3.25,12.29l-2.7,14.93c-1.09,6.28-4.06,11.75-8.59,15.84-4.83,4.37-10.79,6.68-17.23,6.68h-50.46ZM187.92,169.27c1.76-3.08,4.57-5.44,7.9-6.65-.54-.48-1.04-1.01-1.51-1.58-.55-.66-1.03-1.36-1.45-2.1h-4.65l-1.85,10.32h1.55Z"/><path class="cls-2" d="M283.55,216.84c-5.27,0-10.15-2.76-12.86-7.27l-3.82-6.35-.23,1.28c-1.28,7.15-7.5,12.35-14.76,12.35h-20.34c-4.44,0-8.66-1.97-11.51-5.38-2.85-3.41-4.04-7.9-3.26-12.28l13.56-75.47c1.28-7.15,7.5-12.35,14.76-12.35h20.34c4.44,0,8.65,1.97,11.5,5.37.67.8,1.24,1.65,1.73,2.55l5.56-4.54c2.68-2.19,6.03-3.38,9.49-3.38h23.73c6.28,0,11.89,3.91,14.07,9.8,2.18,5.89.46,12.51-4.31,16.59l-26.99,23.13,19.93,33.23c2.78,4.63,2.85,10.4.19,15.11-2.66,4.7-7.65,7.61-13.05,7.61h-23.73Z"/><path class="cls-3" d="M89.76,180.5h-49.49l-3.78,21.35H15l13.56-75.47h68.08c1.55,0,2.99.36,4.31,1.08,1.32.72,2.44,1.71,3.34,2.96.9,1.26,1.56,2.68,1.99,4.26.42,1.58.47,3.23.15,4.96l-5.52,30.73c-.52,2.95-1.82,5.37-3.92,7.28-2.1,1.91-4.5,2.86-7.21,2.86ZM43.47,162.81h36.61c.52,0,.97-.18,1.36-.54.39-.36.64-.83.77-1.4l2.52-13.91c.13-.79-.03-1.49-.48-2.1-.45-.61-1.03-.92-1.74-.92h-47.65l11.33,3.77-2.71,15.09Z"/><path class="cls-3" d="M109.91,201.84l13.56-75.47h20.34l-3.2,17.57h-11.91l11.23,3.77-9.68,54.12h-20.34Z"/><path class="cls-3" d="M163.65,143.95l11.33,3.77-6.01,33.53c-.13.79.03,1.49.48,2.1.45.61,1.03.92,1.74.92h26.54c1.16,0,1.9-.68,2.23-2.05l.97-5.5h20.34l-2.71,14.99c-.52,3.02-1.81,5.46-3.88,7.33-2.07,1.87-4.46,2.8-7.17,2.8h-50.46c-1.55,0-3-.36-4.36-1.08-1.36-.72-2.49-1.71-3.39-2.96-.9-1.26-1.55-2.68-1.94-4.26-.39-1.58-.42-3.23-.1-4.96l9.39-52.07c.52-3.02,1.81-5.46,3.88-7.33,2.06-1.87,4.45-2.8,7.17-2.8h49.29c1.74,0,3.37.41,4.89,1.24,1.52.83,2.79,1.94,3.83,3.34,1.03,1.4,1.78,3,2.23,4.8.45,1.8.48,3.67.1,5.61l-1.84,10.13h-20.34l.87-4.53c.13-.79-.03-1.49-.48-2.1-.45-.61-1.03-.92-1.74-.92h-40.87Z"/><path class="cls-3" d="M265.15,171.22l-20.05,17.36,10.17-5.61-3.39,18.87h-20.34l13.56-75.47h20.34l-4.84,27.06,33.12-27.06h23.73l-36.61,31.37,26.44,44.1h-23.73l-18.4-30.62Z"/></g></svg>