<?xml version="1.0" encoding="UTF-8"?><svg id="Layer_2" xmlns="http://www.w3.org/2000/svg" viewBox="0 0 1027.01 767.87"><defs><style>.cls-1{fill:#b0ca47;}.cls-2{fill:#7b933b;}.cls-3{fill:#2c2a28;}.cls-4{fill:#fff;}.cls-5{fill:#7b6143;}.cls-6{fill:#8e734f;}</style></defs><g id="Layer_1-2"><path class="cls-1" d="M77.4,355.6h-41.39c-10.69,0-20.75-4.7-27.61-12.9-6.86-8.2-9.71-18.94-7.82-29.46l26.1-145.3c3.08-17.17,17.99-29.63,35.43-29.63h131.08c9.02,0,17.58,2.16,25.45,6.42,7.36,4,13.58,9.49,18.5,16.33,4.3,5.99,7.46,12.71,9.39,19.97,2.18,8.23,2.48,16.74.9,25.3l-10.6,59c-2.38,13.46-8.88,25.34-18.8,34.34-10.69,9.71-23.86,14.84-38.08,14.84h-65.09l-2.01,11.37c-3.05,17.23-17.96,29.73-35.45,29.73ZM62.11,160.3c-6.78,0-12.58,4.85-13.78,11.53l-26.1,145.3c-.73,4.09.37,8.27,3.04,11.46,2.67,3.19,6.58,5.02,10.74,5.02h41.39c6.8,0,12.6-4.86,13.79-11.56l5.23-29.54h83.54c8.66,0,16.72-3.16,23.3-9.13,6.27-5.69,10.4-13.27,11.93-21.91l10.61-59.08c1-5.39.82-10.66-.52-15.71-1.24-4.67-3.26-8.97-5.99-12.77-2.97-4.12-6.71-7.43-11.13-9.84-4.6-2.49-9.63-3.76-14.95-3.76H62.11Z"/><path class="cls-1" d="M257.88,355.6h-39.15c-10.69,0-20.75-4.7-27.61-12.9-6.86-8.2-9.71-18.94-7.82-29.46l26.1-145.3c3.08-17.17,17.99-29.63,35.43-29.63h39.15c10.71,0,20.78,4.71,27.64,12.93,6.86,8.22,9.69,18.98,7.78,29.51l-6.15,33.83c-.22,1.19-.49,2.37-.82,3.52-.09,1.22-.25,2.44-.46,3.64l-18.65,104.2c-3.08,17.19-17.98,29.66-35.44,29.66ZM244.83,160.3c-6.78,0-12.58,4.85-13.78,11.53l-26.1,145.3c-.73,4.09.37,8.27,3.04,11.46,2.67,3.19,6.58,5.02,10.74,5.02h39.15c6.79,0,12.59-4.85,13.78-11.53l18.65-104.2c.12-.68.19-1.38.21-2.06l.05-1.63.52-1.55c.22-.64.39-1.31.51-1.99l6.15-33.83c.75-4.1-.36-8.28-3.03-11.48-2.67-3.2-6.58-5.03-10.75-5.03h-39.15Z"/><path class="cls-1" d="M406.67,355.6h-97.14c-8.91,0-17.41-2.11-25.26-6.27-7.54-3.99-13.9-9.55-18.9-16.52-4.42-6.14-7.6-13.08-9.45-20.63-1.96-8-2.17-16.29-.62-24.62l18.05-100.04c2.36-13.59,8.85-25.55,18.75-34.52,10.63-9.62,23.75-14.7,37.95-14.7h94.9c9.41,0,18.37,2.28,26.62,6.76,7.58,4.14,14.02,9.75,19.14,16.69,4.77,6.48,8.21,13.82,10.22,21.81,2.15,8.57,2.37,17.41.65,26.27l-3.5,19.27c-1.73,9.52-7.1,17.59-14.51,22.88,4.81,7.58,6.63,16.71,5.01,25.67l-5.2,28.76c-2.36,13.59-8.85,25.54-18.75,34.5-10.63,9.62-23.75,14.7-37.95,14.7ZM330.04,160.3c-8.65,0-16.67,3.12-23.19,9.01-6.23,5.63-10.33,13.25-11.85,22.03l-18.07,100.17c-.98,5.3-.86,10.48.35,15.43,1.17,4.79,3.17,9.18,5.95,13.03,3.01,4.2,6.82,7.53,11.34,9.92,4.65,2.46,9.68,3.71,14.96,3.71h97.14c8.65,0,16.67-3.12,23.19-9.01,6.22-5.63,10.32-13.25,11.85-22.02l5.22-28.83c.74-4.09-.36-8.27-3.03-11.47-1.61-1.93-3.71-3.39-6.08-4.23l-2.26-.8h-41.56c-5.45,0-10.44,3.19-12.72,8.13l-2.95,6.4h-30.18l8.89-49.63h30.8l2.95,6.39c.51,1.1,1.15,2.12,1.92,3.05,1.62,1.96,3.74,3.44,6.13,4.29l2.26.8h41.56c6.77,0,12.56-4.84,13.77-11.5l3.54-19.47c1.11-5.7.98-11.34-.38-16.77-1.31-5.2-3.53-9.95-6.6-14.12-3.2-4.33-7.22-7.84-11.95-10.42-4.98-2.71-10.4-4.08-16.09-4.08h-94.9Z"/><path class="cls-1" d="M598.71,355.6h-45.68c-12.32,0-23.93-6.44-30.48-16.84-6.42,10.23-17.78,16.84-30.49,16.84h-39.15c-10.69,0-20.75-4.7-27.61-12.9-6.86-8.2-9.71-18.94-7.82-29.46l26.1-145.3c3.08-17.17,17.99-29.63,35.43-29.63h39.16c10.31,0,20.04,4.37,26.87,12.04l4.8-3.92c6.41-5.24,14.5-8.12,22.78-8.12h45.68c14.99,0,28.56,9.45,33.76,23.51,5.2,14.06,1.05,30.07-10.34,39.82l-47.4,40.62,35.27,58.83c6.66,11.1,6.83,24.99.45,36.25-6.38,11.26-18.38,18.26-31.32,18.26ZM513.28,280.64l27.75,46.17c2.52,4.19,7.12,6.79,12,6.79h45.68c5.03,0,9.7-2.72,12.18-7.1s2.41-9.78-.17-14.1l-44.82-74.76,61.5-52.71c4.43-3.79,6.04-10.02,4.02-15.49-2.02-5.47-7.3-9.14-13.13-9.14h-45.68c-3.22,0-6.37,1.12-8.86,3.16l-27.4,22.39-4.8-15.65c-.55-1.8-1.44-3.44-2.65-4.88-2.67-3.19-6.58-5.01-10.74-5.01h-39.16c-6.78,0-12.58,4.85-13.78,11.53l-26.1,145.3c-.74,4.09.37,8.27,3.04,11.46,2.67,3.19,6.58,5.02,10.74,5.02h39.15c6.78,0,12.58-4.85,13.78-11.53l7.44-41.44Z"/><path class="cls-1" d="M732.4,355.6h-95.28c-9.56,0-18.59-2.28-26.85-6.79-7.7-4.19-14.21-9.95-19.33-17.12-4.57-6.4-7.89-13.69-9.85-21.65-2.04-8.28-2.36-16.84-.92-25.42q.01-.07,20.96-116.68c3.09-17.17,17.99-29.63,35.43-29.63h121.94c10.71,0,20.78,4.71,27.64,12.93,6.86,8.22,9.69,18.97,7.78,29.51l-6.15,33.83c-1.9,10.45-8.29,19.4-17.25,24.64l-4.23,23.83c6.6,8.12,9.35,18.64,7.53,28.97l-5.97,33.83c-3.04,17.24-17.95,29.75-35.45,29.75ZM601.86,288.3c-.92,5.63-.72,11.15.6,16.47,1.29,5.25,3.44,10,6.39,14.13,3.17,4.44,7.19,8,11.95,10.59,5,2.73,10.49,4.11,16.32,4.11h95.28c6.81,0,12.6-4.87,13.79-11.57l5.97-33.83c.72-4.09-.4-8.25-3.06-11.43-.52-.62-1.09-1.19-1.7-1.7l-4.85-4.09,6.62-37.36c.12-.69.19-1.39.21-2.09l.2-7.67,7.27-2.46c4.81-1.63,8.37-5.75,9.28-10.76l6.15-33.83c.74-4.1-.36-8.28-3.03-11.48-2.67-3.2-6.59-5.03-10.75-5.03h-121.94c-6.78,0-12.58,4.85-13.78,11.53-.21,1.14-20.41,113.63-20.92,116.48Z"/><path class="cls-1" d="M964.9,355.6h-40.09c-6.59,0-13-1.82-18.55-5.15-5.55,3.33-11.96,5.15-18.55,5.15h-36.92c-8.49,0-16.52-3-22.84-8.18-6.32,5.18-14.35,8.18-22.84,8.18h-40.27c-10.69,0-20.75-4.7-27.61-12.9-6.86-8.2-9.71-18.94-7.82-29.46l26.1-145.3c3.09-17.17,17.99-29.63,35.43-29.63h70.67c10.85,0,20.63,4.73,27.26,12.41,6.73-7.75,16.61-12.41,27.19-12.41h74.95c10.69,0,20.76,4.7,27.62,12.91,6.86,8.2,9.71,18.94,7.82,29.46l-26.1,145.3c-3.09,17.17-17.99,29.63-35.43,29.63ZM906.26,319.95l8.16,9.04c2.65,2.93,6.43,4.61,10.39,4.61h40.09c6.78,0,12.58-4.85,13.78-11.53l26.1-145.3c.74-4.09-.37-8.27-3.04-11.46-2.67-3.19-6.58-5.02-10.74-5.02h-74.95c-5.5,0-10.52,3.24-12.77,8.26l-21.01,46.78-6.83-43.23c-1.08-6.85-6.9-11.81-13.83-11.81h-70.67c-6.78,0-12.58,4.85-13.78,11.53l-26.1,145.3c-.74,4.09.37,8.27,3.04,11.46,2.67,3.19,6.58,5.02,10.74,5.02h40.27c5.53,0,10.55-3.26,12.79-8.3l10.05-22.59,10.05,22.59c2.24,5.04,7.26,8.3,12.79,8.3h36.92c3.95,0,7.74-1.68,10.39-4.62l8.16-9.03Z"/><path class="cls-1" d="M940.07,215.61v-6.62s.86-61.47,0-62.5v-28.63c0-47.34-38.51-85.85-85.85-85.85h-28.24c-15.95-12.67-35.48-19.33-56.94-19.33h-33.93c-16.02-8.41-34.15-12.67-53.95-12.67h-332.92c-19.81,0-37.93,4.26-53.95,12.67h-34.22c-21.46,0-41,6.66-56.94,19.33h-30.13c-47.34,0-85.85,38.51-85.85,85.85v382.38c0,44.33,25.95,85.12,66.11,103.9l69.39,32.45v111.69l23.54-7.62,36.62-11.85c11.88-3.84,25.24-7.45,39.72-10.73,15.52-3.51,29.21-8.77,40.84-15.68l130.76,61.15c6.06,2.83,12.8,4.33,19.49,4.33s13.43-1.5,19.49-4.33l130.76-61.15c11.63,6.91,25.32,12.17,40.85,15.68,14.49,3.28,27.85,6.89,39.72,10.73l36.62,11.85,23.54,7.62v-111.69l69.38-32.45c40.16-18.78,66.11-59.56,66.11-103.9v-144.95s1.29-139.8,0-139.68Z"/><path class="cls-3" d="M513.6,749.87c-4.05,0-8.1-.88-11.86-2.64l-340.87-159.41c-33.86-15.83-55.73-50.21-55.73-87.59V117.85c0-37.41,30.44-67.85,67.85-67.85h681.24c37.41,0,67.85,30.44,67.85,67.85v382.38c0,37.38-21.88,71.76-55.73,87.59l-340.87,159.41c-3.76,1.76-7.81,2.64-11.86,2.64Z"/><path class="cls-5" d="M894.07,117.85v382.39c0,26.67-15.43,50.93-39.59,62.23l-100.84,47.15-240.04,112.25-237.37-111-103.5-48.4c-24.16-11.3-39.6-35.56-39.6-62.23V117.85c0-22.01,17.84-39.85,39.85-39.85h681.24c22.01,0,39.85,17.84,39.85,39.85Z"/><polygon class="cls-1" points="283.88 367.47 286.89 429.97 219.39 407.6 283.88 367.47"/><polygon class="cls-1" points="747.72 378.3 744.85 429.97 815.06 392.97 747.72 378.3"/><path class="cls-3" d="M851.07,135.92c-1.05-23.41-6.48-58.77-27.87-82.02-13.98-15.2-32.71-23.24-54.16-23.24h-38.59c-14.18-8.34-30.85-12.67-49.3-12.67h-332.92c-18.44,0-35.11,4.33-49.3,12.67h-38.88c-21.45,0-40.18,8.03-54.16,23.24-21.39,23.25-26.82,58.6-27.87,82.02h0c-.36,8.05-.2,14.69,0,18.94v163.14h673.25v-182.08h-.22Z"/><path class="cls-2" d="M769.04,58.67h-248.94c-1.92,0-3.76.1-5.55.28-1.78-.18-3.63-.28-5.55-.28h-248.94c-62.06,0-53.84,98.33-53.84,98.33v119h616.66v-119s8.23-98.33-53.84-98.33Z"/><path class="cls-1" d="M753.16,157h.48v452.62l-240.04,112.25-237.37-111V157s-4.58-46.21,14.47-79c10.47-18.03,28.09-32,57.53-32h332.93c29.45,0,47.07,13.97,57.53,32,19.05,32.79,14.47,79,14.47,79Z"/><path class="cls-3" d="M389.9,499.36l-.02-.49c-.14-4.09-2.85-40.54-52.76-59.02-8.08-2.99-18.04-6.08-28.57-9.34-16.82-5.22-35.89-11.13-51.69-17.96-21.11-9.13-24.82-15-24.96-15.24,0,0,.11.18.24.53l-54.24,9.78v96.38c-.28,5.82.32,18.73,8.84,32.98,7.4,12.39,22.69,28.45,53.89,37.48v149.07l36.62-11.85c12.39-4.01,26.28-7.77,41.29-11.16,67.93-15.38,71.37-61.48,71.37-70.57v-79.28s0-51.31,0-51.31Z"/><path class="cls-3" d="M849.3,503.99v-96.38l-54.24-9.78c.13-.35.23-.52.24-.53-.15.25-3.86,6.11-24.96,15.24-15.8,6.84-34.87,12.75-51.69,17.96-10.54,3.27-20.49,6.35-28.57,9.34-49.91,18.48-52.61,54.92-52.76,59.02l-.02.49v36.81h0v93.78c0,9.09,3.44,55.19,71.37,70.57,15,3.39,28.89,7.15,41.29,11.16l36.62,11.85v-149.08c31.19-9.03,46.48-25.09,53.89-37.48,8.51-14.25,9.12-27.16,8.84-32.98Z"/><path class="cls-2" d="M361.91,553.75v76.19c0,6.06-2.73,32.66-49.55,43.26-14.94,3.38-29.92,7.36-43.73,11.83v-194.12l82.85,54.17,10.38,6.79.05,1.88Z"/><path class="cls-1" d="M205.9,407.6v97.26s-3.5,32.5,49.5,44.5,106.5,30.64,106.5,52.64v-102.15s-.75-21.25-34.5-33.75-110.5-29-121.5-58.5Z"/><path class="cls-2" d="M665.3,551.9v78.04c0,6.06,2.73,32.66,49.55,43.26,14.94,3.38,29.92,7.36,43.73,11.83v-194.12s-82.85,54.17-82.85,54.17l-10.38,6.79-.05.03Z"/><path class="cls-1" d="M821.3,407.6v97.26s3.5,32.5-49.5,44.5c-53,12-106.5,31.5-106.5,53.5v-103.01s.75-21.25,34.5-33.75c33.75-12.5,110.5-29,121.5-58.5Z"/><path class="cls-3" d="M370.65,128.45h-23.14l4.1-10.11v-27.94l-4.1-10.07h37.21v15.42l-12.63-5.34h-6.21v9h9.07v9.1h-9.07v9.84l4.77,10.11Z"/><path class="cls-3" d="M397.72,128.38c-2.98,0-5.35-.86-7.12-2.59-1.79-1.75-2.69-4.11-2.69-7.09v-28.65c0-2.96.91-5.32,2.72-7.09,1.79-1.75,4.15-2.62,7.09-2.62h19.01c2.98,0,5.35.87,7.12,2.62,1.81,1.75,2.72,4.11,2.72,7.09v28.65c0,2.96-.91,5.31-2.72,7.05-1.79,1.75-4.17,2.62-7.12,2.62h-19.01ZM412.1,90.4h-9.74v27.88h9.74v-27.88Z"/><path class="cls-3" d="M440.01,128.38c-2.98,0-5.35-.86-7.12-2.59-1.79-1.75-2.69-4.11-2.69-7.09v-28.65c0-2.96.91-5.32,2.72-7.09,1.79-1.75,4.15-2.62,7.09-2.62h19.01c2.98,0,5.35.87,7.12,2.62,1.81,1.75,2.72,4.11,2.72,7.09v28.65c0,2.96-.91,5.31-2.72,7.05-1.79,1.75-4.17,2.62-7.12,2.62h-19.01ZM454.38,90.4h-9.74v27.88h9.74v-27.88Z"/><path class="cls-3" d="M504.12,128.42h-22.4l3.96-10.11v-27.91h-2.72l-10.41,6.92v-16.96h40.74v16.96l-10.41-6.92h-2.72v27.91l3.96,10.11Z"/><path class="cls-3" d="M558.73,96.68c0,3.83-2.47,6.04-7.42,6.65,2.64.54,4.52,1.32,5.64,2.35,1.19,1.08,1.78,2.63,1.78,4.67v8.36c0,2.98-.9,5.34-2.69,7.09-1.77,1.75-4.15,2.62-7.15,2.62h-31.67l4.1-10.11v-27.94l-4.1-10.04h31.67c3,0,5.38.87,7.15,2.62,1.79,1.75,2.69,4.11,2.69,7.09v6.65ZM535.72,99.2h8.46v-8.83h-8.46v8.83ZM544.19,108.06h-8.46v10.24h8.46v-10.24Z"/><path class="cls-3" d="M565.68,118.34l7.69-38.02h23.17l7.66,38.02,3.59,10.11h-17.3l-1.61-11.72h-8.6l-1.54,11.72h-16.96l3.9-10.11ZM588.02,107.93l-3.29-19.41-3.39,19.41h6.68Z"/><path class="cls-3" d="M615.29,118.41v-28.01l-4.13-10.07h22.64l-4.2,10.07v28.01h5.24l13.27-8.67v18.81h-36.94l4.13-10.14Z"/><path class="cls-3" d="M655.56,118.41v-28.01l-4.13-10.07h22.64l-4.2,10.07v28.01h5.24l13.27-8.67v18.81h-36.94l4.13-10.14Z"/><rect class="cls-6" x="205.9" y="216.22" width="615.4" height="236.98"/><path class="cls-3" d="M36,344.6c-7.4,0-14.43-3.28-19.18-8.96-4.75-5.68-6.74-13.17-5.43-20.46l26.1-145.3c2.14-11.91,12.5-20.58,24.61-20.58h131.08c7.17,0,13.97,1.71,20.21,5.09,5.89,3.2,10.86,7.6,14.81,13.08,3.52,4.9,6.1,10.4,7.69,16.37,1.76,6.64,2,13.52.72,20.47l-10.61,59.05c-1.96,11.06-7.27,20.79-15.36,28.14-8.64,7.84-19.25,11.99-30.69,11.99h-74.31l-3.62,20.45c-2.11,11.94-12.49,20.64-24.62,20.64h-41.39Z"/><path class="cls-3" d="M218.72,344.6c-7.4,0-14.43-3.28-19.18-8.96-4.75-5.68-6.74-13.17-5.43-20.46l26.1-145.3c2.14-11.91,12.5-20.58,24.61-20.58h39.15c7.41,0,14.44,3.29,19.19,8.98,4.75,5.69,6.73,13.2,5.4,20.49l-6.15,33.83c-.22,1.21-.53,2.39-.91,3.53-.04,1.21-.16,2.44-.38,3.66l-18.65,104.2c-2.13,11.92-12.5,20.6-24.61,20.6h-39.15Z"/><path class="cls-3" d="M309.53,344.6c-7.1,0-13.86-1.68-20.11-4.99-6.02-3.19-11.12-7.64-15.12-13.21-3.59-4.99-6.19-10.66-7.7-16.83-1.59-6.48-1.75-13.21-.49-20l18.06-100.09c1.95-11.22,7.24-21.01,15.31-28.31,8.58-7.76,19.15-11.86,30.57-11.86h94.9c7.56,0,14.74,1.83,21.36,5.43,6.16,3.36,11.38,7.92,15.54,13.56,3.92,5.33,6.75,11.37,8.41,17.97,1.76,7.02,1.93,14.26.51,21.55l-3.51,19.33c-2.16,11.89-12.51,20.53-24.6,20.53h-1.18c4.18,1.48,7.95,4.06,10.86,7.54,4.75,5.69,6.73,13.19,5.41,20.48l-5.2,28.76c-1.95,11.22-7.24,21-15.31,28.3-8.57,7.76-19.14,11.86-30.57,11.86h-97.14ZM371.28,260.76c4-8.68,12.77-14.53,22.71-14.53h1.18c-4.23-1.49-8.03-4.12-10.95-7.65-1.39-1.68-2.53-3.51-3.43-5.45h-14.55l-4.95,27.63h9.99Z"/><path class="cls-3" d="M553.03,344.6c-8.78,0-16.91-4.6-21.43-12.12l-12.67-21.08-2.27,12.62c-2.14,11.91-12.5,20.58-24.61,20.58h-39.15c-7.4,0-14.43-3.28-19.18-8.96-4.75-5.68-6.74-13.17-5.43-20.46l26.1-145.3c2.14-11.91,12.5-20.58,24.61-20.58h39.16c7.4,0,14.42,3.28,19.17,8.95,2.17,2.59,3.76,5.56,4.73,8.72l14.72-12.03c4.46-3.65,10.05-5.64,15.82-5.64h45.68c10.46,0,19.82,6.51,23.45,16.33,3.63,9.81.77,20.85-7.18,27.66l-54.45,46.67,40.05,66.79c4.63,7.72,4.75,17.34.31,25.18-4.44,7.84-12.75,12.68-21.75,12.68h-45.68Z"/><path class="cls-3" d="M637.12,344.6c-7.7,0-14.96-1.83-21.58-5.44-6.23-3.39-11.51-8.06-15.65-13.86-3.76-5.26-6.5-11.29-8.12-17.89-1.68-6.82-1.94-13.89-.76-20.98.02-.1,20.94-116.55,20.94-116.55,2.14-11.91,12.5-20.58,24.61-20.58h121.94c7.41,0,14.44,3.29,19.19,8.98,4.75,5.69,6.73,13.2,5.4,20.49l-6.15,33.83c-1.66,9.14-8.16,16.36-16.57,19.21-.03,1.24-.16,2.49-.38,3.72l-5.52,31.12c1.09.92,2.11,1.93,3.04,3.04,4.75,5.66,6.75,13.13,5.47,20.41l-5.97,33.83c-2.11,11.95-12.49,20.66-24.62,20.66h-95.28Z"/><path class="cls-3" d="M924.81,344.6c-7.08,0-13.82-3-18.55-8.24-4.67,5.17-11.38,8.24-18.55,8.24h-36.92c-10.03,0-18.89-5.96-22.84-14.83-3.94,8.85-12.79,14.83-22.84,14.83h-40.27c-7.4,0-14.43-3.28-19.18-8.96-4.75-5.68-6.74-13.17-5.43-20.46l26.1-145.3c2.14-11.91,12.5-20.58,24.61-20.58h70.67c12.3,0,22.77,8.95,24.69,21.1l1.07,6.75,5.88-13.09c4.03-8.98,12.96-14.76,22.81-14.76h74.95c7.4,0,14.43,3.28,19.18,8.96,4.75,5.68,6.74,13.17,5.43,20.46l-26.1,145.3c-2.14,11.91-12.5,20.58-24.61,20.58h-40.09Z"/><path class="cls-4" d="M179.94,278.5h-95.28l-7.27,41.1h-41.39l26.1-145.3h131.08c2.98,0,5.75.69,8.3,2.08,2.55,1.38,4.69,3.29,6.43,5.71,1.74,2.42,3.01,5.16,3.82,8.2.81,3.05.9,6.23.28,9.55l-10.63,59.16c-1,5.68-3.51,10.35-7.55,14.01-4.04,3.67-8.67,5.5-13.89,5.5ZM90.82,244.46h70.48c.99,0,1.86-.34,2.61-1.04.75-.69,1.24-1.59,1.49-2.7l4.85-26.78c.25-1.52-.06-2.87-.93-4.05-.87-1.17-1.99-1.76-3.36-1.76h-91.73l21.81,7.26-5.22,29.06Z"/><path class="cls-4" d="M218.72,319.6l26.1-145.3h39.15l-6.15,33.83h-22.93l21.63,7.26-18.65,104.2h-39.15Z"/><path class="cls-4" d="M322.21,208.13l21.81,7.26-11.56,64.56c-.25,1.52.06,2.87.93,4.05.87,1.18,1.99,1.76,3.36,1.76h51.09c2.24,0,3.67-1.31,4.29-3.94l1.86-10.59h39.15l-5.22,28.85c-1,5.81-3.48,10.52-7.46,14.11-3.98,3.6-8.58,5.4-13.8,5.4h-97.14c-2.98,0-5.78-.69-8.39-2.08-2.61-1.38-4.79-3.29-6.53-5.71-1.74-2.42-2.98-5.15-3.73-8.2-.75-3.04-.81-6.23-.19-9.55l18.09-100.26c.99-5.81,3.48-10.51,7.46-14.11,3.98-3.6,8.58-5.4,13.8-5.4h94.9c3.36,0,6.49.8,9.42,2.39,2.92,1.59,5.38,3.74,7.36,6.43,1.99,2.7,3.42,5.78,4.29,9.24.87,3.46.93,7.06.19,10.79l-3.54,19.51h-39.15l1.68-8.72c.25-1.52-.06-2.87-.93-4.05-.87-1.17-1.99-1.76-3.36-1.76h-78.68Z"/><path class="cls-4" d="M517.6,260.65l-38.6,33.42,19.58-10.79-6.53,36.33h-39.15l26.1-145.3h39.16l-9.32,52.1,63.77-52.1h23.63l3.67,15.76-52.09,44.64,50.9,84.9h-45.68l-35.43-58.95Z"/><path class="cls-4" d="M646.63,208.13l21.81,7.26-2.8,15.78h69.73l-5.59,31.55h-69.92l-2.98,17.23c-.25,1.52.06,2.87.93,4.05.87,1.18,1.99,1.76,3.36,1.76h77.19l-5.97,33.83h-95.28c-3.48,0-6.68-.79-9.6-2.39-2.92-1.59-5.35-3.74-7.27-6.43-1.93-2.7-3.33-5.81-4.2-9.34-.87-3.53-1-7.16-.37-10.9l20.88-116.24h121.94l-6.15,33.83h-105.72Z"/><path class="cls-4" d="M887.71,319.6h-36.92l-23.87-116.24h-23.12l21.63,7.27-20.32,108.98h-40.27l26.1-145.3h70.67l14.17,89.67,40.27-89.67h74.95l-26.1,145.3h-40.09l19.58-116.24-56.68,116.24Z"/><path class="cls-3" d="M506.44,741.13c-28.82-11.57-53.44-32.4-71.2-60.24-17.9-28.06-27.36-61.12-27.36-95.61s9.46-67.56,27.36-95.61c17.76-27.84,42.38-48.67,71.2-60.24l7.15-2.87,7.15,2.87c28.82,11.57,53.45,32.4,71.21,60.23,17.9,28.06,27.37,61.12,27.37,95.62s-9.46,67.56-27.37,95.62c-17.76,27.84-42.38,48.67-71.21,60.23l-7.15,2.87-7.15-2.87Z"/><path class="cls-3" d="M599.21,585.28c0,62.97-35.72,116.56-85.62,136.59-49.9-20.03-85.61-73.62-85.61-136.59s35.71-116.56,85.61-136.59c49.9,20.03,85.62,73.62,85.62,136.59Z"/><path class="cls-6" d="M494.99,482.74h37.22c-9.66-17.49-18.53-25.88-18.6-25.95,0,0,0,0,0,0,0,0-8.91,8.39-18.61,25.95Z"/><path class="cls-6" d="M532.92,687.51h-38.64c9.97,17.95,19.32,26.27,19.32,26.27,0,0,0,0,0,0,.09-.08,9.39-8.4,19.32-26.27Z"/><path class="cls-6" d="M539.97,498.73h-52.74c-8.86,20.9-16.54,49.9-16.54,87.65s7.28,64.81,15.83,85.13h54.15c8.56-20.33,15.83-48.4,15.83-85.13s-7.68-66.75-16.54-87.65ZM534.65,642.35h-42.1v-15.99h42.1v15.99ZM534.65,618.36h-42.1v-15.99h42.1v15.99ZM534.65,594.37h-42.1v-15.99h42.1v15.99ZM534.65,570.39h-42.1v-15.99h42.1v15.99ZM492.55,546.4v-15.99h42.1v15.99h-42.1Z"/><path class="cls-5" d="M513.6,456.79c-14.55,5.84-27.82,14.72-39.2,25.95h20.59c9.7-17.57,18.61-25.95,18.61-25.95Z"/><path class="cls-5" d="M470.69,586.38c0-37.74,7.68-66.75,16.54-87.65h-26.6c-17.22,23.55-27.57,53.68-27.57,86.55s10.26,62.73,27.35,86.23h26.12c-8.56-20.33-15.83-48.4-15.83-85.13Z"/><path class="cls-5" d="M494.28,687.51h-20.21c11.45,11.38,24.84,20.37,39.53,26.27,0,0-9.35-8.32-19.32-26.27Z"/><path class="cls-5" d="M532.21,482.74h20.59c-11.38-11.23-24.65-20.11-39.2-25.95h0c.07.07,8.95,8.46,18.6,25.95Z"/><path class="cls-5" d="M539.97,498.73c8.86,20.9,16.54,49.9,16.54,87.65s-7.28,64.81-15.83,85.13h26.12c1.51-2.08,2.98-4.2,4.38-6.38,14.45-22.45,22.97-50.03,22.97-79.85s-8.52-57.41-22.97-79.85c-1.47-2.29-3.01-4.52-4.6-6.69h-26.6Z"/><path class="cls-5" d="M532.92,687.51c-9.92,17.86-19.23,26.19-19.31,26.26h0c14.69-5.89,28.07-14.88,39.53-26.26h-20.21Z"/><path class="cls-4" d="M329.73,382.66c0,3.55-1.05,6.38-3.16,8.48-2.11,2.08-4.95,3.12-8.52,3.12h-14.77v10.76l5.2,12.12h-27.33l4.92-12.12v-33.41l-4.92-12h36.89c3.65,0,6.51,1.04,8.56,3.12,2.08,2.11,3.12,5.07,3.12,8.88v11.04ZM303.28,384.14h9.6v-12.52h-9.6v12.52Z"/><path class="cls-4" d="M338.17,405.03l9.16-45.29h27.61l9.12,45.29,4.28,12.04h-20.61l-1.92-13.96h-10.24l-1.84,13.96h-20.21l4.64-12.04ZM364.78,392.62l-3.92-23.13-4.04,23.13h7.96Z"/><path class="cls-4" d="M440.77,383.82c0,2.19-1.01,4.05-3.04,5.6-1.84,1.36-3.97,2.12-6.4,2.28.96,1.92,5.71,10.35,14.25,25.29h-18.21l-13.12-22.21v22.21h-21.97l4.88-12.04v-33.13l-4.88-11.92h36.81c3.55,0,6.38,1.03,8.48,3.08,2.13,2.05,3.2,4.87,3.2,8.44v12.4ZM423.92,371.82h-9.68v12.28h9.68v-12.28Z"/><path class="cls-4" d="M487.06,417.03h-26.69l4.72-12.04v-33.25h-3.24l-12.4,8.24v-20.21h48.54v20.21l-12.4-8.24h-3.24v33.25l4.72,12.04Z"/><path class="cls-4" d="M521.83,404.95v-7.56l-11.64-25.73-7.52-11.92h20.73l7.16,22.25,7.64-22.25h19.45l-7.2,12-11.4,25.65v7.56l5.16,12.04h-27.53l5.16-12.04Z"/><path class="cls-4" d="M586.58,405.03l9.16-45.29h27.61l9.12,45.29,4.28,12.04h-20.61l-1.92-13.96h-10.24l-1.84,13.96h-20.21l4.64-12.04ZM613.19,392.62l-3.92-23.13-4.04,23.13h7.96Z"/><path class="cls-4" d="M689.49,382.66c0,3.55-1.05,6.38-3.16,8.48-2.11,2.08-4.95,3.12-8.52,3.12h-14.77v10.76l5.2,12.12h-27.33l4.92-12.12v-33.41l-4.92-12h36.89c3.65,0,6.51,1.04,8.56,3.12,2.08,2.11,3.12,5.07,3.12,8.88v11.04ZM663.04,384.14h9.6v-12.52h-9.6v12.52Z"/><path class="cls-4" d="M742.27,382.66c0,3.55-1.05,6.38-3.16,8.48-2.11,2.08-4.95,3.12-8.52,3.12h-14.77v10.76l5.2,12.12h-27.33l4.92-12.12v-33.41l-4.92-12h36.89c3.65,0,6.51,1.04,8.56,3.12,2.08,2.11,3.12,5.07,3.12,8.88v11.04ZM715.82,384.14h9.6v-12.52h-9.6v12.52Z"/><polygon class="cls-4" points="607.17 160.63 612.49 189.69 623.5 183.57 627.36 160.63 607.17 160.63"/></g></svg>